<svg xmlns="http://www.w3.org/2000/svg" xmlns:xlink="http://www.w3.org/1999/xlink" width="1800" height="1050" viewBox="0 0 1800 1050" role="img" aria-labelledby="title desc">
  <title id="title">NoteBuddy 核心笔记前端视觉方案</title>
  <desc id="desc">参考核心笔记样式的课程学习工作区，包含左侧导航、笔记大纲、核心笔记、知识关系图和右侧问答伙伴。</desc>

  <defs>
    <linearGradient id="accent" x1="0" x2="1" y1="0" y2="1">
      <stop offset="0" stop-color="#7669ff"/>
      <stop offset="1" stop-color="#5a8df7"/>
    </linearGradient>
    <linearGradient id="paper" x1="0" x2="1" y1="0" y2="1">
      <stop offset="0" stop-color="#fffefd"/>
      <stop offset="1" stop-color="#fbfcff"/>
    </linearGradient>
    <linearGradient id="diagram" x1="0" x2="1" y1="0" y2="1">
      <stop offset="0" stop-color="#effbfb"/>
      <stop offset="1" stop-color="#edf2ff"/>
    </linearGradient>
    <filter id="shadow" x="-20%" y="-20%" width="140%" height="150%">
      <feDropShadow dx="0" dy="8" stdDeviation="16" flood-color="#4f5b7a" flood-opacity=".10"/>
    </filter>
    <filter id="softShadow" x="-20%" y="-20%" width="140%" height="150%">
      <feDropShadow dx="0" dy="4" stdDeviation="8" flood-color="#4f5b7a" flood-opacity=".09"/>
    </filter>
    <pattern id="grid" width="22" height="22" patternUnits="userSpaceOnUse">
      <path d="M22 0H0V22" fill="none" stroke="#d6edf1" stroke-opacity=".45" stroke-width="1"/>
    </pattern>
    <marker id="arrow" markerWidth="8" markerHeight="8" refX="7" refY="4" orient="auto">
      <path d="M0 0L8 4L0 8Z" fill="#6b9ca6"/>
    </marker>
    <!-- Tech-line icon system for the current NoteBuddy information architecture. -->
    <symbol id="tech-overview" viewBox="0 0 24 24">
      <rect x="3" y="3" width="18" height="18" rx="5" fill="none" stroke="currentColor" stroke-width="1.6"/>
      <path d="M7 8H17M7 12H17M7 16H13" fill="none" stroke="currentColor" stroke-width="1.6" stroke-linecap="round"/>
      <circle cx="18" cy="16" r="1.5" fill="currentColor"/>
    </symbol>
    <symbol id="tech-material" viewBox="0 0 24 24">
      <path d="M6 3H15L19 7V21H6Z" fill="none" stroke="currentColor" stroke-width="1.7" stroke-linejoin="round"/>
      <path d="M15 3V8H19M9 12H16M9 16H14" fill="none" stroke="currentColor" stroke-width="1.7" stroke-linecap="round"/>
      <path d="M3 7V19C3 20.1 3.9 21 5 21" fill="none" stroke="currentColor" stroke-width="1.3" stroke-linecap="round" opacity=".55"/>
    </symbol>
    <symbol id="tech-pages" viewBox="0 0 24 24">
      <rect x="4" y="6" width="14" height="15" rx="2.5" fill="none" stroke="currentColor" stroke-width="1.6"/>
      <path d="M8 3H19C20.1 3 21 3.9 21 5V18M8 10H14M8 14H17M8 18H13" fill="none" stroke="currentColor" stroke-width="1.6" stroke-linecap="round"/>
    </symbol>
    <symbol id="tech-node" viewBox="0 0 24 24">
      <path d="M7 7L17 5M7 7L6 17M17 5L19 17M6 17L19 17" fill="none" stroke="currentColor" stroke-width="1.5"/>
      <circle cx="7" cy="7" r="2.4" fill="#fff" stroke="currentColor" stroke-width="1.7"/>
      <circle cx="17" cy="5" r="2.4" fill="#fff" stroke="currentColor" stroke-width="1.7"/>
      <circle cx="6" cy="17" r="2.4" fill="#fff" stroke="currentColor" stroke-width="1.7"/>
      <circle cx="19" cy="17" r="2.4" fill="#fff" stroke="currentColor" stroke-width="1.7"/>
    </symbol>
    <symbol id="tech-source" viewBox="0 0 24 24">
      <path d="M9 8L11 6C12.7 4.3 15.3 4.3 17 6C18.7 7.7 18.7 10.3 17 12L14 15C12.3 16.7 9.7 16.7 8 15C7.3 14.3 6.8 13.4 6.7 12.4" fill="none" stroke="currentColor" stroke-width="1.7" stroke-linecap="round"/>
      <path d="M15 16L13 18C11.3 19.7 8.7 19.7 7 18C5.3 16.3 5.3 13.7 7 12L10 9C11.7 7.3 14.3 7.3 16 9C16.7 9.7 17.2 10.6 17.3 11.6" fill="none" stroke="currentColor" stroke-width="1.7" stroke-linecap="round"/>
    </symbol>
    <symbol id="tech-note" viewBox="0 0 24 24">
      <path d="M5 3H16L20 7V21H5Z" fill="none" stroke="currentColor" stroke-width="1.6" stroke-linejoin="round"/>
      <path d="M16 3V8H20M8 12H16M8 16H15" fill="none" stroke="currentColor" stroke-width="1.6" stroke-linecap="round"/>
      <path d="M8 19H12" fill="none" stroke="currentColor" stroke-width="1.6" stroke-linecap="round"/>
    </symbol>
    <symbol id="tech-chat" viewBox="0 0 24 24">
      <path d="M4 5.5C4 4.7 4.7 4 5.5 4H18.5C19.3 4 20 4.7 20 5.5V14.5C20 15.3 19.3 16 18.5 16H10L6 20V16H5.5C4.7 16 4 15.3 4 14.5Z" fill="none" stroke="currentColor" stroke-width="1.6" stroke-linejoin="round"/>
      <path d="M8 9H16M8 12H13" fill="none" stroke="currentColor" stroke-width="1.6" stroke-linecap="round"/>
      <path d="M18.3 2.5V5M17 3.75H19.6" stroke="currentColor" stroke-width="1.4" stroke-linecap="round"/>
    </symbol>
    <style>
      .font { font-family: "Microsoft YaHei", "PingFang SC", "Noto Sans CJK SC", Arial, sans-serif; }
      .serif { font-family: Georgia, "Times New Roman", "Noto Serif CJK SC", serif; }
      .ink { fill: #202638; }
      .muted { fill: #7c8494; }
      .tiny { font-size: 13px; letter-spacing: .6px; }
      .label { font-size: 15px; font-weight: 600; }
      .body { font-size: 17px; }
      .hairline { stroke: #e9ebf1; stroke-width: 1; }
    </style>
  </defs>

  <!-- Application frame -->
  <rect x="18" y="18" width="1764" height="1014" rx="22" fill="#ffffff" stroke="#e4e6ed" stroke-width="2"/>
  <rect x="18" y="18" width="72" height="1014" rx="22" fill="#fbfbff"/>
  <path d="M90 18V1032" stroke="#e8e9f0"/>

  <!-- Left icon rail -->
  <g class="font" text-anchor="middle">
    <rect x="34" y="39" width="40" height="40" rx="12" fill="url(#accent)"/>
    <path d="M48 50L60 50L53 59L60 68L48 68L55 59Z" fill="none" stroke="#fff" stroke-width="2.6" stroke-linejoin="round"/>
    <rect x="27" y="124" width="54" height="54" rx="16" fill="#eeeaff"/>
    <path d="M43 140H65M43 148H65M43 156H58" stroke="#6658e8" stroke-width="2.3" stroke-linecap="round"/>
    <path d="M43 211L66 211M45 202H64V219H45Z" fill="none" stroke="#6f7683" stroke-width="2"/>
    <circle cx="48" cy="278" r="5" fill="none" stroke="#6f7683" stroke-width="2"/><circle cx="66" cy="264" r="5" fill="none" stroke="#6f7683" stroke-width="2"/><path d="M52 275L62 267" stroke="#6f7683" stroke-width="2"/>
    <path d="M43 326C43 318 49 314 55 314C61 314 67 318 67 326V337H43Z" fill="none" stroke="#6f7683" stroke-width="2"/><path d="M48 337H62" stroke="#6f7683" stroke-width="2"/>
    <path d="M42 383H68V404H42Z" fill="none" stroke="#6f7683" stroke-width="2"/><path d="M47 391H63M47 397H58" stroke="#6f7683" stroke-width="2"/>
    <path d="M44 452H66M44 459H61M44 466H65" stroke="#6f7683" stroke-width="2" stroke-linecap="round"/>
    <circle cx="54" cy="978" r="21" fill="#f0efff"/><text x="54" y="984" font-size="15" fill="#6658e8">3</text>
    <path d="M43 1008L47 1004L52 1008L58 1004L65 1008L63 1018H45Z" fill="none" stroke="#8a91a0" stroke-width="2"/>
  </g>

  <!-- Header -->
  <g class="font">
    <text x="124" y="61" class="tiny muted">NOTE BUDDY  /  LOCAL LEARNING SPACE</text>
    <text x="124" y="98" class="ink" font-size="26" font-weight="700">高等数学 · 导数与微分</text>
    <circle cx="474" cy="89" r="3" fill="#a5abb7"/><circle cx="485" cy="89" r="3" fill="#a5abb7"/><circle cx="496" cy="89" r="3" fill="#a5abb7"/>
    <g class="label">
      <text x="126" y="151" fill="#6658e8">▤  笔记</text>
      <text x="258" y="151" class="muted">⌘  思维导图</text>
      <text x="430" y="151" class="muted">▱  课程资料</text>
      <text x="590" y="151" class="muted">◌  覆盖总览</text>
      <text x="748" y="151" class="tiny muted">下一阶段</text>
    </g>
    <rect x="124" y="165" width="71" height="3" rx="1.5" fill="#6658e8"/>
  </g>

  <!-- Main note shell -->
  <rect x="124" y="196" width="1160" height="792" rx="20" fill="url(#paper)" stroke="#e6e8ef" stroke-width="2" filter="url(#shadow)"/>
  <path d="M124 257H1284" class="hairline"/>
  <g class="font">
    <text x="156" y="235" class="ink" font-size="20" font-weight="700">▣  核心笔记</text>
    <text x="1015" y="235" class="muted" font-size="15">♡　☆　▣</text>
    <rect x="1115" y="212" width="106" height="37" rx="18" fill="#f0edff" stroke="#7768ff"/>
    <text x="1168" y="237" text-anchor="middle" fill="#6658e8" font-size="16" font-weight="700">↗  分享</text>
    <circle cx="1244" cy="230" r="17" fill="#fff" stroke="#e3e5eb"/><text x="1244" y="236" text-anchor="middle" class="muted" font-size="18">⋯</text>
  </g>

  <!-- Outline column -->
  <rect x="124" y="258" width="287" height="730" rx="0" fill="#fbfbfd"/>
  <path d="M411 258V988" class="hairline"/>
  <g class="font">
    <text x="158" y="302" class="ink" font-size="18" font-weight="700">课程知识树</text>
    <text x="158" y="326" class="tiny muted">COURSE STRUCTURE / LOCAL SOURCE</text>

    <rect x="151" y="344" width="226" height="52" rx="13" fill="#f5f3ff" stroke="#e5e0ff"/>
    <use xlink:href="#tech-overview" x="164" y="357" width="26" height="26" style="color:#6658e8"/>
    <text x="202" y="369" class="ink" font-size="15" font-weight="700">课程总览</text>
    <text x="202" y="386" class="muted" font-size="12">1 门课程 · 3 个知识点</text>

    <use xlink:href="#tech-material" x="164" y="410" width="26" height="26" style="color:#5e8ff5"/>
    <text x="202" y="422" class="ink" font-size="15" font-weight="600">课程资料</text>
    <text x="202" y="440" class="muted" font-size="12">PPTX 讲次与原始文件</text>

    <use xlink:href="#tech-pages" x="164" y="473" width="26" height="26" style="color:#4ca7ad"/>
    <text x="202" y="485" class="ink" font-size="15" font-weight="600">解析页面</text>
    <text x="202" y="503" class="muted" font-size="12">逐页内容与解析状态</text>

    <use xlink:href="#tech-node" x="164" y="536" width="26" height="26" style="color:#d49a42"/>
    <text x="202" y="548" class="ink" font-size="15" font-weight="600">知识节点</text>
    <text x="202" y="566" class="muted" font-size="12">知识点与关系网络</text>

    <use xlink:href="#tech-source" x="164" y="599" width="26" height="26" style="color:#8e78d8"/>
    <text x="202" y="611" class="ink" font-size="15" font-weight="600">来源引用</text>
    <text x="202" y="629" class="muted" font-size="12">PageBlock 与课件页码</text>

    <rect x="151" y="650" width="226" height="52" rx="13" fill="#eef9f8" stroke="#ccebe7"/>
    <use xlink:href="#tech-note" x="164" y="663" width="26" height="26" style="color:#328f8b"/>
    <text x="202" y="675" class="ink" font-size="15" font-weight="700">核心笔记</text>
    <text x="202" y="692" class="muted" font-size="12">AI 草稿 · 用户版本 · 修订历史</text>

    <use xlink:href="#tech-chat" x="164" y="724" width="26" height="26" style="color:#7669ff"/>
    <text x="202" y="736" class="ink" font-size="15" font-weight="600">课程问答</text>
    <text x="202" y="754" class="muted" font-size="12">本地检索与 RAG 上下文</text>

    <path d="M374 285V903" stroke="#d8dce5" stroke-width="6" stroke-linecap="round"/>
    <rect x="371" y="650" width="6" height="52" rx="3" fill="#6ebcb7"/>
    <text x="158" y="936" class="tiny muted">本地单用户 Demo  ·  数据保存在本机</text>
  </g>

  <!-- Note content -->
  <g class="font">
    <text x="458" y="310" class="tiny muted">CHAPTER 01  ·  CORE NOTE</text>
    <text x="458" y="356" class="ink" font-size="35" font-weight="800">导数：函数变化的速度</text>
    <text x="458" y="392" class="body" font-weight="700">教材：</text><text x="520" y="392" class="body ink">高等数学（第八版）</text>
    <text x="458" y="424" class="body" font-weight="700">学习目标：</text><text x="554" y="424" class="body ink">理解定义、几何意义与基本应用</text>

    <rect x="458" y="458" width="780" height="111" rx="14" fill="#f7f8ff" stroke="#ecebff"/>
    <circle cx="493" cy="493" r="14" fill="#f7d978"/><text x="493" y="499" text-anchor="middle" font-size="16">!</text>
    <text x="522" y="496" class="ink" font-size="21" font-weight="700">一句话理解</text>
    <text x="522" y="531" class="body ink">导数描述函数在某一点附近的瞬时变化率，</text>
    <text x="522" y="557" class="body ink">也可以理解为曲线在该点切线的斜率。</text>

    <text x="458" y="615" class="ink" font-size="23" font-weight="800">核心公式</text>
    <rect x="458" y="636" width="780" height="86" rx="12" fill="#fffaf0" stroke="#f3e4bd"/>
    <text x="848" y="692" text-anchor="middle" class="serif" fill="#202638" font-size="29">f′(x) = lim   [ f(x + h) − f(x) ] / h</text>
    <text x="676" y="678" class="serif" fill="#202638" font-size="15">h→0</text>
    <text x="458" y="750" class="muted" font-size="14">记忆：先看“变化量”，再除以“自变量变化量”，最后取极限。</text>

    <text x="458" y="800" class="ink" font-size="23" font-weight="800">知识关系</text>
    <rect x="458" y="819" width="780" height="140" rx="15" fill="url(#diagram)" stroke="#dceff1"/>
    <rect x="458" y="819" width="780" height="140" rx="15" fill="url(#grid)" opacity=".7"/>
    <circle cx="847" cy="889" r="38" fill="#fff" stroke="#5eabb2" stroke-width="3"/>
    <text x="847" y="884" text-anchor="middle" class="ink" font-size="16" font-weight="700">导数</text>
    <text x="847" y="904" text-anchor="middle" class="muted" font-size="12">核心概念</text>
    <rect x="490" y="850" width="146" height="48" rx="12" fill="#fff" stroke="#b8dfe2"/><text x="563" y="880" text-anchor="middle" class="ink" font-size="15" font-weight="700">极限</text>
    <rect x="1056" y="850" width="146" height="48" rx="12" fill="#fff" stroke="#c9c2f9"/><text x="1129" y="880" text-anchor="middle" class="ink" font-size="15" font-weight="700">切线斜率</text>
    <rect x="490" y="914" width="146" height="28" rx="10" fill="#fff" stroke="#f0d8a2"/><text x="563" y="933" text-anchor="middle" class="muted" font-size="13">连续性</text>
    <rect x="1056" y="914" width="146" height="28" rx="10" fill="#fff" stroke="#f0d8a2"/><text x="1129" y="933" text-anchor="middle" class="muted" font-size="13">单调性</text>
    <path d="M636 874H798" stroke="#6b9ca6" stroke-width="2" marker-end="url(#arrow)"/><path d="M896 874H1054" stroke="#6b9ca6" stroke-width="2" marker-end="url(#arrow)"/>
    <path d="M636 925H798" stroke="#b9a269" stroke-width="1.8" marker-end="url(#arrow)"/><path d="M896 925H1054" stroke="#b9a269" stroke-width="1.8" marker-end="url(#arrow)"/>
  </g>

  <!-- Assistant panel -->
  <path d="M1320 18V1032" stroke="#e7e8ef"/>
  <rect x="1320" y="18" width="462" height="1014" rx="22" fill="#fdfdff"/>
  <g class="font">
    <text x="1352" y="60" class="muted" font-size="15">◷　＋</text>
    <text x="1608" y="60" class="ink" font-size="18" font-weight="700">课程答疑伙伴</text>
    <text x="1736" y="60" class="muted" font-size="20">↗　×</text>
    <path d="M1320 84H1782" class="hairline"/>
    <circle cx="1551" cy="237" r="46" fill="#f0edff"/>
    <path d="M1530 220L1572 220L1557 239L1572 258L1530 258L1545 239Z" fill="none" stroke="#6d60f4" stroke-width="6" stroke-linejoin="round"/>
    <text x="1551" y="316" text-anchor="middle" class="ink" font-size="22" font-weight="800">你好，我是 NoteBuddy</text>
    <text x="1551" y="351" text-anchor="middle" class="muted" font-size="17">我会基于当前课程的核心笔记回答问题</text>
    <text x="1551" y="378" text-anchor="middle" class="muted" font-size="17">并给出对应的课件来源。</text>

    <rect x="1360" y="423" width="174" height="36" rx="18" fill="#fff" stroke="#e8e9f1"/><text x="1447" y="446" text-anchor="middle" class="muted" font-size="14">▤ 总结当前笔记</text>
    <rect x="1546" y="423" width="194" height="36" rx="18" fill="#fff" stroke="#e8e9f1"/><text x="1643" y="446" text-anchor="middle" class="muted" font-size="14">♧ 解释这个公式</text>

    <rect x="1354" y="487" width="402" height="220" rx="17" fill="#fff" stroke="#eaebf2" filter="url(#softShadow)"/>
    <text x="1382" y="525" class="muted" font-size="14">当前上下文</text>
    <text x="1382" y="554" class="ink" font-size="18" font-weight="700">第 1 章 · 导数与微分</text>
    <rect x="1382" y="578" width="338" height="86" rx="13" fill="#f8f7ff"/>
    <text x="1403" y="608" class="ink" font-size="15" font-weight="700">回答范围</text>
    <text x="1403" y="635" class="muted" font-size="14">当前笔记 · 3 个知识点 · 6 条来源</text>
    <text x="1382" y="694" class="tiny muted">● LOCAL RAG READY</text>

    <rect x="1354" y="855" width="402" height="113" rx="17" fill="#fff" stroke="#e3e5ed"/>
    <text x="1380" y="891" class="muted" font-size="16">问任何问题…</text>
    <path d="M1380 918H1645" stroke="#ececf2"/>
    <text x="1380" y="947" class="muted" font-size="13">⌕ 当前笔记　　◎ 标准模式</text>
    <circle cx="1719" cy="928" r="23" fill="#e9e6ff"/><text x="1719" y="935" text-anchor="middle" fill="#6658e8" font-size="20">↑</text>
    <text x="1354" y="1004" class="tiny muted">本地单用户 Demo  ·  来源优先  ·  用户笔记受保护</text>
  </g>

  <!-- Design annotation -->
  <rect x="1420" y="92" width="265" height="27" rx="13" fill="#202638" opacity=".92"/>
  <text x="1552" y="111" text-anchor="middle" class="font" fill="#fff" font-size="12" letter-spacing="1.2">CORE NOTE VISUAL SYSTEM · A</text>
</svg>
